<?xml version="1.0" standalone="no"?>
<!DOCTYPE svg PUBLIC "-//W3C//DTD SVG 20010904//EN"
 "http://www.w3.org/TR/2001/REC-SVG-20010904/DTD/svg10.dtd">
<svg version="1.0" xmlns="http://www.w3.org/2000/svg"
 width="864.000000pt" height="391.000000pt" viewBox="0 0 864.000000 391.000000"
 preserveAspectRatio="xMidYMid meet">

<g transform="translate(0.000000,391.000000) scale(0.100000,-0.100000)"
fill="#000000" stroke="none">
<path d="M1440 3530 c0 -6 13 -36 29 -68 89 -178 148 -405 158 -602 6 -136 -4
-222 -38 -328 -28 -84 -43 -88 -93 -26 -102 123 -170 164 -273 164 -178 0
-303 -128 -291 -298 12 -160 117 -262 293 -281 136 -16 159 -45 156 -207 -5
-478 171 -936 478 -1241 42 -42 104 -96 139 -121 66 -47 211 -132 225 -132 4
0 -20 25 -53 57 -144 134 -294 358 -359 537 -57 158 -74 263 -74 451 0 233 20
331 120 600 164 439 126 820 -119 1182 -83 123 -298 349 -298 313z"/>
<path d="M4115 2937 c-67 -23 -101 -44 -143 -92 -46 -52 -68 -110 -78 -202
-14 -130 -51 -153 -251 -153 -358 -1 -715 -111 -996 -307 -111 -77 -280 -248
-348 -353 -54 -81 -99 -162 -99 -176 0 -3 37 31 83 76 193 194 408 315 671
381 104 26 359 37 475 20 134 -20 324 -74 456 -131 26 -11 73 -25 170 -51 104
-27 364 -38 469 -19 278 49 561 213 766 443 28 33 49 61 47 64 -3 2 -37 -12
-76 -31 -211 -107 -524 -177 -715 -161 -139 11 -286 55 -286 85 0 5 28 32 63
61 115 94 149 156 151 269 0 63 -4 83 -26 126 -53 100 -130 153 -237 160 -31
2 -74 -2 -96 -9z"/>
<path d="M4907 1600 c-115 -20 -208 -98 -268 -225 -52 -109 -70 -180 -76 -310
-9 -199 44 -376 148 -489 113 -124 311 -167 456 -99 127 59 215 185 221 319 3
55 1 72 -10 77 -20 7 -28 1 -70 -56 -61 -81 -110 -107 -199 -107 -110 0 -226
72 -301 187 -78 118 -107 206 -73 219 30 12 65 -8 149 -85 67 -61 99 -82 142
-96 83 -26 155 -7 208 55 69 83 50 236 -20 159 -25 -28 -74 -21 -185 26 -46
20 -108 39 -136 42 -46 5 -62 1 -119 -27 -82 -40 -89 -35 -89 63 1 142 41 190
141 168 29 -7 86 -29 126 -51 134 -70 243 -88 305 -51 61 38 123 160 123 243
0 48 -16 55 -67 30 -65 -33 -92 -34 -226 -7 -69 14 -128 24 -129 24 -2 -1 -24
-5 -51 -9z"/>
<path d="M3738 1572 c-120 -1 -218 -5 -218 -8 0 -3 9 -19 20 -35 12 -15 41
-90 66 -166 37 -111 47 -159 55 -251 9 -117 -1 -293 -21 -363 -13 -48 -46 -89
-71 -89 -46 0 -112 149 -159 360 -65 289 -83 456 -56 509 10 18 16 34 14 35
-2 2 -102 1 -224 -2 l-221 -5 28 -51 c52 -97 161 -483 224 -790 37 -179 41
-225 25 -257 -10 -19 -5 -19 235 -19 240 0 245 0 235 19 -17 32 -12 107 19
280 28 152 35 181 45 170 2 -2 20 -89 40 -193 35 -176 38 -213 21 -258 -6 -16
11 -16 232 -11 131 3 239 6 240 7 1 1 -2 18 -8 37 -26 85 153 906 227 1038 13
24 24 45 24 47 0 2 -88 4 -195 4 -192 0 -196 0 -219 -23 -13 -13 -27 -42 -30
-63 -9 -50 14 -161 49 -246 129 -308 154 -449 95 -546 -28 -45 -62 -43 -94 6
-91 137 -209 739 -163 831 8 17 12 32 9 33 -4 2 -105 2 -224 0z"/>
<path d="M2530 1555 c0 -1 7 -19 15 -39 12 -29 16 -124 22 -535 6 -458 5 -502
-11 -525 l-16 -26 185 0 185 0 -17 27 c-16 23 -19 63 -25 297 -12 493 -10 733
7 772 l14 35 -179 -1 c-99 -1 -180 -3 -180 -5z"/>
<path d="M7690 1090 c-41 -41 -13 -110 44 -110 19 0 40 8 49 18 37 41 6 112
-48 112 -14 0 -34 -9 -45 -20z"/>
<path d="M7338 1054 c-40 -20 -46 -27 -38 -42 5 -9 13 -102 17 -207 l8 -190
62 -3 61 -3 -4 38 c-2 21 -6 127 -10 236 -6 193 -7 197 -28 197 -11 -1 -42
-12 -68 -26z"/>
<path d="M5652 1039 c-18 -12 -45 -45 -60 -73 -23 -44 -27 -63 -27 -141 0 -75
4 -98 24 -138 73 -149 287 -126 308 33 6 46 -7 52 -31 15 -56 -85 -189 -34
-236 91 -32 87 -23 164 19 164 10 0 43 -11 72 -24 30 -13 63 -27 74 -31 19 -6
19 -7 -5 -26 -64 -50 -70 -58 -70 -93 0 -61 69 -86 114 -40 23 23 21 64 -3 64
-38 0 -30 53 15 101 29 30 56 100 45 112 -4 4 -18 4 -31 -1 -12 -5 -43 -5 -69
-1 -75 13 -104 10 -139 -12z"/>
<path d="M7534 985 c-29 -23 -58 -45 -65 -48 -10 -4 -8 -9 8 -21 19 -15 22
-27 25 -137 3 -118 4 -121 31 -145 29 -24 71 -31 96 -15 13 8 13 12 1 26 -10
12 -16 55 -18 146 -4 126 -4 129 17 129 11 0 21 5 21 10 0 6 -9 10 -20 10 -17
0 -20 7 -20 45 0 56 -10 56 -76 0z"/>
<path d="M8483 986 c-15 -25 -50 -35 -99 -30 -61 7 -138 -20 -167 -57 -10 -15
-21 -46 -24 -70 -7 -65 23 -104 121 -154 87 -45 106 -65 106 -111 0 -25 -6
-34 -29 -44 -22 -9 -34 -9 -50 0 -22 11 -25 23 -22 83 3 34 1 37 -24 37 -41 0
-95 -37 -95 -65 0 -60 138 -109 240 -85 112 27 120 122 13 153 -55 16 -65 33
-26 42 54 12 103 70 103 123 0 44 -23 96 -51 116 -23 16 -23 16 19 16 34 0 42
4 42 18 0 35 -41 56 -57 28z m-98 -66 c12 -13 19 -42 23 -88 7 -111 -25 -176
-69 -136 -35 32 -37 195 -3 229 20 20 27 19 49 -5z"/>
<path d="M7712 923 c-40 -20 -50 -28 -42 -38 7 -9 10 -60 8 -139 l-3 -126 73
0 c56 0 71 3 65 13 -4 6 -10 79 -13 162 -6 171 -4 169 -88 128z"/>
<path d="M7865 943 l-30 -4 7 -135 c4 -79 3 -145 -2 -159 l-10 -25 73 0 72 0
-5 102 c-5 109 3 143 35 143 27 0 38 -53 32 -157 l-4 -88 66 0 66 0 -3 97 c-4
127 -18 205 -39 221 -9 6 -34 12 -56 12 -31 0 -44 -6 -65 -30 -32 -36 -42 -38
-42 -6 0 13 -7 27 -16 30 -16 6 -24 6 -79 -1z"/>
<path d="M6733 929 c-85 -16 -117 -65 -89 -133 22 -52 77 -75 178 -76 42 0 79
-4 82 -9 3 -4 -3 -16 -14 -26 -29 -26 -87 -22 -153 10 -51 25 -59 27 -73 14
-8 -9 -17 -31 -20 -51 -6 -35 -6 -35 39 -47 166 -41 290 37 232 148 -16 31
-83 64 -152 76 -24 4 -53 15 -65 25 -19 15 -20 20 -9 34 22 26 55 19 109 -25
64 -50 101 -55 120 -16 10 21 11 31 2 42 -24 29 -121 46 -187 34z"/>
<path d="M7148 841 c5 -113 -6 -154 -41 -149 -21 3 -22 7 -25 121 l-3 117 -62
0 -63 0 3 -117 c5 -158 9 -180 38 -199 33 -21 84 -12 115 21 29 31 38 31 42 3
3 -21 9 -23 63 -26 l60 -3 -2 163 -2 163 -64 1 -64 0 5 -95z"/>
<path d="M6061 920 c-43 -10 -80 -37 -109 -81 -20 -28 -23 -44 -20 -94 4 -69
24 -103 79 -134 92 -53 208 0 240 109 17 57 -3 120 -52 165 -22 19 -48 35 -58
35 -11 0 -25 2 -33 4 -7 2 -28 0 -47 -4z m58 -69 c42 -76 39 -241 -3 -241 -39
0 -74 77 -83 180 -10 113 39 147 86 61z"/>
<path d="M6452 900 c-36 -36 -40 -37 -44 -7 -3 20 -9 22 -63 25 l-60 3 0 -161
0 -160 73 0 c71 0 72 1 61 21 -17 33 -8 194 13 215 9 9 24 14 33 10 14 -5 16
-22 13 -126 l-3 -120 72 0 c54 0 71 3 68 13 -3 6 -9 71 -13 144 -10 153 -19
173 -83 173 -28 0 -45 -7 -67 -30z"/>
</g>
</svg>
