<svg width="422" height="160" viewBox="0 0 422 160" fill="none" xmlns="http://www.w3.org/2000/svg">
<path fill-rule="evenodd" clip-rule="evenodd" d="M52.3223 72L57.5 77.1327L62.6777 72L65.9991 75.4413L60.8964 80.4996L66 85.5587L62.6786 89L57.5 83.8664L52.3214 89L49 85.5587L54.1036 80.4996L49.0009 75.4413L52.3223 72Z" fill="black"/>
<path fill-rule="evenodd" clip-rule="evenodd" d="M57 120.997C57.1664 120.999 57.3331 121 57.5 121C79.8675 121 98 102.868 98 80.5C98 58.1325 79.8675 40 57.5 40C57.3331 40 57.1664 40.001 57 40.003V46.0035C57.1664 46.0012 57.3331 46 57.5 46C76.5538 46 92 61.4462 92 80.5C92 99.5538 76.5538 115 57.5 115C57.3331 115 57.1664 114.999 57 114.996V120.997Z" fill="black"/>
<path fill-rule="evenodd" clip-rule="evenodd" d="M108.979 82C108.993 81.5017 109 81.0017 109 80.5C109 52.0573 85.9427 29 57.5 29C29.0573 29 6 52.0573 6 80.5C6 81.0017 6.00717 81.5017 6.02143 82H0.0191849C0.00642087 81.5016 0 81.0015 0 80.5C0 48.7436 25.7436 23 57.5 23C89.2564 23 115 48.7436 115 80.5C115 81.0015 114.994 81.5016 114.981 82H108.979Z" fill="black"/>
<path fill-rule="evenodd" clip-rule="evenodd" d="M31.0046 81C31.2712 95.4048 43.0315 107 57.5 107C71.9685 107 83.7289 95.4048 83.9954 81L77.994 81C77.7286 92.0908 68.6547 101 57.5 101C46.3453 101 37.2715 92.0908 37.006 81L31.0046 81Z" fill="black"/>
<path d="M157 81.5L177.25 69.8087L177.25 93.1913L157 81.5Z" fill="black"/>
<path d="M201 81.5L221.25 69.8087L221.25 93.1913L201 81.5Z" fill="black"/>
<path d="M245 81.5L265.25 69.8087L265.25 93.1913L245 81.5Z" fill="black"/>
<script xmlns=""/></svg>