<svg width="422" height="160" viewBox="0 0 422 160" fill="none" xmlns="http://www.w3.org/2000/svg">
<path fill-rule="evenodd" clip-rule="evenodd" d="M117.104 92.6621L123.5 98.7005L129.896 92.6621L133.999 96.7107L127.696 102.662L134 108.614L129.897 112.662L123.5 106.623L117.103 112.662L113 108.614L119.304 102.662L113.001 96.7107L117.104 92.6621Z" fill="black"/>
<path fill-rule="evenodd" clip-rule="evenodd" d="M219.997 50.5936L228.736 50.5554L228.774 41.8161L234.506 41.9177L234.469 50.5304L243.083 50.4927L243.185 56.225L234.444 56.2632L234.406 65.004L228.673 64.9024L228.711 56.2882L220.098 56.3258L219.997 50.5936Z" fill="black"/>
<path d="M69.5 41.6621L82.9234 65.6621H56.0766L69.5 41.6621Z" fill="black"/>
<path d="M69.5 88.6621L82.9234 112.662H56.0766L69.5 88.6621Z" fill="black"/>
<path d="M15.5 88.6621L28.9234 112.662H2.07661L15.5 88.6621Z" fill="black"/>
<path d="M124 41.6621L137.856 65.6621H110.144L124 41.6621Z" fill="black"/>
<path d="M178.5 41.6621L191.923 65.6621H165.077L178.5 41.6621Z" fill="black"/>
<path d="M178.5 88.6621L191.923 112.662H165.077L178.5 88.6621Z" fill="black"/>
<circle cx="16.5" cy="54.1621" r="9.5" stroke="black" stroke-width="6"/>
<script xmlns=""/></svg>