<svg width="422" height="160" viewBox="0 0 422 160" fill="none" xmlns="http://www.w3.org/2000/svg">
<g clip-path="url(#clip0_308_1338)">
<path d="M18 101L18 59.5581L-6.41819e-07 47L-1.79601e-06 88.4419L18 101Z" fill="black"/>
<path d="M57.625 105.399L43.625 115.166L43.625 78.6014L57.625 68.834L57.625 105.399Z" stroke="black" stroke-width="4"/>
<path d="M142.563 105.399L128.562 115.166L128.562 78.6014L142.563 68.834L142.563 105.399Z" stroke="black" stroke-width="4"/>
<path d="M102.375 101L102.375 59.5581L84.375 47L84.375 88.4419L102.375 101Z" fill="black"/>
<path d="M186.75 101L186.75 59.5581L168.75 47L168.75 88.4419L186.75 101Z" fill="black"/>
<path fill-rule="evenodd" clip-rule="evenodd" d="M129.104 31L135.5 37.0384L141.896 31L145.999 35.0486L139.696 40.9995L146 46.9514L141.897 51L135.5 44.9605L129.103 51L125 46.9514L131.304 40.9995L125.001 35.0486L129.104 31Z" fill="black"/>
</g>
<defs>
<clipPath id="clip0_308_1338">
<rect width="422" height="160" fill="white"/>
</clipPath>
</defs>
<script xmlns=""/></svg>